<?xml version="1.0" encoding="utf-8"?>
<!-- Generator: Adobe Illustrator 17.0.1, SVG Export Plug-In . SVG Version: 6.00 Build 0)  -->
<!DOCTYPE svg PUBLIC "-//W3C//DTD SVG 1.1//EN" "http://www.w3.org/Graphics/SVG/1.1/DTD/svg11.dtd">
<svg version="1.1" id="Calque_1" xmlns="http://www.w3.org/2000/svg" xmlns:xlink="http://www.w3.org/1999/xlink" x="0px" y="0px"
	 width="94px" height="94px" viewBox="0 0 94 94" style="enable-background:new 0 0 94 94;" xml:space="preserve">
<style type="text/css">
	.st0{fill:#D3BAA0;}
	.st1{fill:#050582;}
	.st2{fill:#3A393B;}
	.st3{fill:#EACAA3;}
	.st4{fill:#A27D5F;}
</style>
<g>
	<path class="st0" d="M80.4,93.6c-3.4-2.8-7.4-4.4-11.3-6c-10.3-4.8-20.6-10-30.4-16.3c-4.9-3.2-10.8-4.4-16.7-6.4
		c-3.4-1.2-6.9-1.2-10.3-0.4c-2.5,0.8-5.4,0.8-7.4-1.6c1,0,2,0,2-1.2c2.5,0,3.4-2,4.4-3.2h0.5c2.9,0,5.4-1.2,7.8-1.6
		c0.5,0,1-0.8,1-1.2c3.9,2.4,9.3,3.2,13.2,5.6c0.5,0.8,1.5,1.2,2.5,1.2l0,0c1,0.8,2,2,3.4,2c0.5,0,1.5,1.2,1.5-0.4
		c2.9,0.8,6.4,1.2,8.8,3.2c1.5,1.2,3.9,1.6,4.9,3.6c-3.9-0.8-7.4-2.8-11.8-4.4c1,0.8,1,1.2,1,1.2c6.4,3.6,13.2,7.2,19.6,10.4
		c0.5,0.4,1.5,0.4,2.5,0.8c0.5,0.8,1.5,1.2,2.5,1.6c6.4,3.6,13.2,7.2,20.1,10.4c-2,0.8-3.9,2-5.9,3.2C81.9,93.6,81.4,93.6,80.4,93.6
		z"/>
	<path class="st1" d="M35.8,0.4c3.4,2.4,6.9,5.2,10.3,7.6c8.3,6.4,13.2,13.9,15.2,23.5c0.5,2,0,3.2-2,4c-2,0.8-3.9,3.2-5.4,2.4
		c-1.5-0.4-1-3.6-1.5-5.2c-2.9-8-7.4-14.7-14.7-19.9c-0.5-0.4-1-0.8-1.5-1.2C33.4,10,31.4,6.8,28,6.4C21.1,6,14.2,6.8,8.3,10
		c-1,0.4-2,1.2-3.4,1.2c1.5-2,3.4-3.6,5.4-4.8C15.7,3.6,20.6,1.2,27,0.8c1,0,2,0.4,2.5-0.8C31.4,0.4,33.8,0.4,35.8,0.4z"/>
	<path class="st2" d="M11.8,58.6h-0.5c-0.5-2-1-2.8-2.9-0.8c-1,0.8-2.5,1.6-3.4,2.4c-1,0.8-2-0.4-2.9,0c-0.5-0.4-1-1.2-2-1.2
		c0-0.8,0-1.6,0-2c1.5-1.6,1.5-4,2.5-6c2-6.4,6.4-11.9,10.8-17.1c0.5-0.8,1-0.8,2-0.8c0.5,2.8,2.9,3.2,4.9,4l0,0c0,0.4,0,1.2,1,1.2
		c0.5,0,1-0.4,1-1.2h0.5h0.5l0,0l0,0c0.5,0.4,1,0.8,1,1.6c-2,2-4.4,4-2.9,7.6c-0.5,0.4-1,0.8-2,1.2c-1,0-1.5,0.4-2,1.2
		c-1.5,0.4-1.5,2-2.5,3.2c-1.5,2-0.5,2.4,1.5,2.8l0,0C16.2,56.2,12.8,56.2,11.8,58.6z"/>
	<path class="st3" d="M19.1,47c0.5-0.4,1-0.8,2-1.2c0.5,0.8,1,0.8,1,0c0.5-1.2,1-2,1.5-3.2c-0.5,4,2,6,5.4,7.6
		c17.7,8.4,34.8,16.7,52,25.1c3.4,1.6,6.9,3.6,9.8,5.2c3.9,2,3.9,2.4,2,6c-2.5-1.2-4.9-2.4-7.4-3.6c-1.5-0.8-1.5,0-1.5,1.2
		c-1,0-1.5,0.4-2.5-0.4c-1-2.8-2.9-3.6-5.9-4l0,0c-1-0.8-2.5-0.8-3.4-1.2l0,0c-1.5-1.2-2.5-3.6-5.4-2.8c-1-0.4-1.5-0.4-2.5-0.8
		c-1-2.8-4.4-2.4-6.4-4c-1-0.8-2.5-1.2-3.4-0.8l0,0c-1-1.6-3.4-2.4-4.9-3.6c-2.5-2-5.9-2.4-8.8-3.2c-1.5-0.8-2.9-2-4.9-1.6l0,0
		c0-1.6-1.5-0.8-2.5-1.2c-3.9-2.4-9.3-3.2-13.2-5.6l0,0c0-0.8,0-1.2-0.5-1.6c-2-1.2-1.5-2.8-0.5-4.4C20.1,48.6,19.1,47.8,19.1,47z"
		/>
	<path class="st1" d="M2.5,30.7c3.4-4,7.4-7.2,11.8-9.6c8.8-4.8,21.1-0.4,25,7.6c2,4.4,2,4.4-2,6.8c-0.5,0.4-1.5,0.8-2,1.2
		c-1.5,1.2-2,0.4-2.9-0.8c-2.9-7.6-9.3-10.4-17.2-10.8c-1.5,0-2.5,0-3.4,1.2C9.3,28.7,5.9,29.5,2.5,30.7z"/>
	<path class="st4" d="M88.8,90.4c-6.9-3.2-13.7-6.8-20.1-10.4c-1-0.4-2-0.8-2.5-1.6c2.5-0.8,4.4,1.2,6.9,2c1,0.8,2,0.8,2.9,1.6
		c4.9,2.4,10.3,4,14.7,6.8c0,0.4,0,0.8,0,1.6C89.8,90,89.3,90.4,88.8,90.4z"/>
	<path class="st0" d="M90.3,90c0-0.4,0-0.8,0-1.6c2-0.8,0.5-1.2,0-1.6c-2-1.2-4.4-1.6-5.9-3.2c0-0.8,0-2,1.5-1.2
		c2.5,1.2,4.9,2.4,7.4,3.6C92.7,88,92.7,90,90.3,90z"/>
	<path class="st4" d="M24,42.6c-0.5,1.2-1,2-1.5,3.2c-0.5,0.8-0.5,0.8-1,0c-2-3.2,1-5.2,2.9-7.6C25,39.8,24,41,24,42.6z"/>
	<path class="st4" d="M20.1,37c-2-1.2-4.4-1.6-4.9-4c2,0,3.4,1.2,4.9,2C20.1,35.8,20.1,36.6,20.1,37z"/>
	<path class="st0" d="M20.1,37c0-0.8,0-1.6,0-2.4c1,0.4,2.5,0.4,2.9,2l0,0l0,0c0-0.4-0.5-0.4-0.5,0h-0.5
		C21.1,37.4,20.6,37.4,20.1,37L20.1,37z"/>
	<path class="st4" d="M1.5,60.1c1-0.4,2,0.8,2.9,0c0.5,0.4,1.5,1.2,2,1.6c0,1.2-1,1.2-2,1.2C3.4,62.1,2,61.7,1.5,60.1z"/>
	<path class="st4" d="M11.8,58.6c1-2,4.4-2,4.9-4.4c1.5,0.4,2.5,1.6,3.9,1.6l0,0c0,0.4-0.5,1.2-1,1.2C17.2,57.4,14.7,58.2,11.8,58.6
		z"/>
	<path class="st0" d="M20.6,55.4c-1.5,0-2.5-1.2-3.9-1.6l0,0c-0.5-2,1-4,1-6c0.5-0.8,1-1.2,2-1.2c0,0.8,1,1.6,0,2.8
		c-1,1.6-1.5,3.2,0.5,4.4C20.6,54.2,20.6,55,20.6,55.4z"/>
	<path class="st4" d="M17.7,48.2c0,2-1.5,3.6-1,6c-2-0.4-2.9-0.8-1.5-2.8C15.7,50.2,15.7,48.6,17.7,48.2z"/>
	<path class="st4" d="M20.1,37c0.5,0,1,0,2,0c0,0.4,0,1.2-1,1.2C20.1,38.2,19.6,37.8,20.1,37z"/>
	<path class="st4" d="M22.1,37c0-0.4,0.5-0.4,0.5,0C22.6,37,22.6,37,22.1,37z"/>
	<path class="st0" d="M65.2,74.9c-3.9-0.4-7.4-2-9.8-4.8c1.5-0.4,2.5-0.4,3.4,0.8C60.8,72.5,63.8,72.5,65.2,74.9z"/>
	<path class="st0" d="M81.9,83.2c-2-1.2-4.9-1.6-5.9-4C79,79.7,81.4,80.9,81.9,83.2z"/>
	<path class="st0" d="M72.6,78.5c-2-0.4-4.4-0.4-5.4-2.8C70.1,74.9,71.1,77.3,72.6,78.5z"/>
	<path class="st0" d="M76.5,79.7c-1,0-2,0.8-2.9,0.4c0-0.4-1-0.8-0.5-1.6C74.1,78.9,75.1,78.5,76.5,79.7z"/>
</g>
</svg>
